<?xml version="1.0" standalone="no"?>
<!DOCTYPE svg PUBLIC "-//W3C//DTD SVG 20010904//EN"
 "http://www.w3.org/TR/2001/REC-SVG-20010904/DTD/svg10.dtd">
<svg version="1.0" xmlns="http://www.w3.org/2000/svg"
 width="500.000000pt" height="500.000000pt" viewBox="0 0 500.000000 500.000000"
 preserveAspectRatio="xMidYMid meet">

<g transform="translate(0.000000,500.000000) scale(0.100000,-0.100000)"
fill="#000000" stroke="none">
<path d="M1593 3190 l-341 -229 -12 -57 c-9 -42 -9 -71 -1 -111 17 -87 16 -87
135 -98 l106 -10 -307 -335 -308 -335 1 -110 c0 -60 6 -136 13 -167 12 -54 13
-57 49 -62 68 -11 692 -36 1172 -47 552 -13 1948 -1 2012 17 23 7 32 102 25
263 l-5 126 -130 375 -130 375 -49 3 c-47 3 -50 4 -81 57 -18 29 -32 58 -32
63 0 5 36 41 80 78 92 79 90 69 62 244 l-17 104 -65 3 c-36 2 -435 21 -888 43
-452 22 -850 40 -885 39 l-62 0 -342 -229z m1322 160 c462 -22 847 -41 855
-43 11 -2 8 -7 -8 -16 -19 -10 -64 -11 -229 -2 -248 13 -303 14 -303 2 0 -4
64 -11 143 -15 281 -13 350 -19 333 -28 -9 -5 -73 -5 -153 0 -76 5 -141 7
-146 5 -23 -12 14 -23 81 -24 42 -1 100 -4 128 -7 l51 -7 -214 -172 c-195
-157 -218 -173 -254 -173 -21 0 -197 13 -391 29 -564 48 -781 62 -1137 74
l-334 12 309 206 309 207 60 -4 c33 -3 438 -23 900 -44z m890 -79 c-86 -77
-548 -451 -553 -447 -3 4 1 13 9 21 26 25 541 435 547 435 3 0 2 -4 -3 -9z
m15 -35 c0 -8 -47 -54 -105 -101 -96 -79 -120 -105 -96 -105 5 0 53 36 106 80
54 44 101 78 104 74 3 -3 -12 -20 -34 -37 -74 -59 -98 -84 -89 -90 6 -3 35 14
65 38 30 23 57 41 62 38 4 -2 7 -17 7 -33 0 -24 -34 -58 -256 -254 -225 -200
-274 -237 -274 -207 0 4 68 62 150 130 83 68 150 127 150 132 0 21 -27 5 -113
-68 -51 -42 -82 -66 -69 -52 12 14 22 28 22 32 0 17 -25 3 -90 -54 -39 -33
-75 -57 -80 -54 -23 14 -5 43 58 92 110 86 156 129 146 136 -6 3 -57 -32 -114
-78 -57 -47 -106 -82 -109 -79 -3 2 2 11 10 19 16 16 543 454 547 455 1 0 2
-6 2 -14z m-2442 -298 c-3 -7 -23 -14 -47 -16 -48 -4 -46 -22 3 -22 l33 0 5
-87 c3 -49 5 -89 4 -90 0 0 -22 1 -48 4 l-47 6 -12 53 c-8 37 -9 70 -3 102 9
45 11 47 49 53 64 10 67 10 63 -3z m488 -10 c4 -5 5 -11 1 -14 -9 -9 -347 8
-347 18 0 11 335 7 346 -4z m477 -23 c85 -6 107 -10 107 -22 0 -13 -13 -15
-90 -9 -54 5 -90 4 -90 -2 0 -10 78 -22 143 -22 35 0 37 -2 37 -32 0 -18 7
-62 14 -98 8 -36 13 -66 11 -68 -3 -4 -333 16 -391 24 -47 6 -47 6 -60 138
l-7 69 86 -8 c54 -4 87 -3 87 3 0 10 -69 22 -126 22 -21 0 -34 5 -34 13 0 13
21 12 313 -8z m-538 -15 l60 0 0 -52 c0 -29 3 -75 7 -102 l8 -49 -73 6 c-39 4
-116 9 -169 13 l-97 7 -10 49 c-6 27 -11 70 -11 95 l0 46 113 -6 c61 -4 139
-7 172 -7z m982 -20 c71 -6 142 -13 160 -16 l31 -5 1 -73 c0 -40 7 -91 15
-115 l15 -42 -92 6 c-51 3 -129 8 -174 11 l-82 6 -15 46 c-9 26 -19 80 -22
120 -8 84 -27 77 163 62z m409 -36 c18 -5 23 -16 29 -60 3 -30 19 -79 35 -110
l28 -57 -55 7 c-31 4 -59 9 -63 11 -9 6 -37 107 -45 168 -6 46 -6 47 22 47 15
0 38 -3 49 -6z m204 -77 c0 -2 -10 -12 -22 -23 l-23 -19 19 23 c18 21 26 27
26 19z m-70 -61 c0 -2 -8 -10 -17 -17 -16 -13 -17 -12 -4 4 13 16 21 21 21 13z
m359 -69 c6 -35 11 -107 11 -160 l0 -97 -39 0 -38 0 -7 123 c-3 67 -8 136 -12
154 -6 33 -7 32 62 42 7 0 17 -26 23 -62z m-110 -20 c6 -35 11 -104 11 -154
l0 -90 -31 -7 c-60 -12 -59 -13 -59 82 0 48 -5 116 -10 151 -5 36 -7 68 -4 73
3 4 22 8 44 8 l38 0 11 -63z m-1766 -254 c3 -54 13 -125 22 -157 18 -68 12
-78 -45 -74 -35 3 -35 4 -53 73 -11 46 -16 99 -15 155 3 80 4 84 28 91 57 16
57 16 63 -88z m-122 -10 c0 -51 8 -117 19 -158 10 -38 17 -71 16 -71 0 -1 -17
-4 -37 -8 -36 -6 -37 -5 -53 34 -23 57 -39 183 -31 241 l7 49 39 0 39 0 1 -87z
m2409 -348 c0 -13 -21 -15 -130 -15 -109 0 -130 2 -130 15 0 13 21 15 130 15
109 0 130 -2 130 -15z m-2977 -22 c-4 -16 -7 -75 -8 -132 l0 -103 -59 6 c-32
3 -79 6 -102 6 -24 0 -44 5 -44 10 0 7 25 9 75 4 66 -6 75 -5 75 10 0 13 -13
16 -80 16 l-80 0 0 105 0 105 115 0 115 0 -7 -27z m2987 -110 c0 -49 -3 -112
-6 -140 l-7 -53 -135 0 -135 0 7 53 c3 28 6 78 6 109 l0 57 100 3 c58 2 100 7
100 13 0 6 -42 11 -100 13 -80 2 -100 6 -100 17 0 12 23 15 135 15 l135 0 0
-87z m-2980 -153 c0 -12 -139 -12 -185 0 -20 5 6 8 78 9 65 1 107 -3 107 -9z"/>
<path d="M1985 3330 c3 -5 15 -10 25 -10 10 0 22 5 25 10 4 6 -7 10 -25 10
-18 0 -29 -4 -25 -10z"/>
<path d="M2620 3252 c0 -5 7 -16 16 -23 14 -12 16 -11 13 5 -4 20 -29 35 -29
18z"/>
<path d="M3270 3183 c1 -11 50 -46 50 -35 0 10 -33 42 -43 42 -4 0 -7 -3 -7
-7z"/>
<path d="M2310 3130 c-8 -5 -11 -12 -7 -16 4 -4 13 -2 19 4 15 15 7 24 -12 12z"/>
<path d="M1580 3040 c0 -5 9 -10 21 -10 11 0 17 5 14 10 -3 6 -13 10 -21 10
-8 0 -14 -4 -14 -10z"/>
<path d="M3045 2960 c-3 -5 3 -10 15 -10 12 0 18 5 15 10 -3 6 -10 10 -15 10
-5 0 -12 -4 -15 -10z"/>
</g>
</svg>
